# xmcd CD database file
#
# Track frame offsets:
#	183
#	21333
#	38833
#	53033
#	80008
#	98973
#	125665
#	145345
#	168828
#	191395
#	214873
#
# Disc length: 3170 seconds
#
# Revision: 0
# Processed by: cddbd v1.5PL3 Copyright (c) Steve Scherf et al.
# Submitted via: CDex 1.51
#
DISCID=980c600b
DTITLE=Paul Bley - Lyrics
DYEAR=1900
DGENRE=Jazz
TTITLE0=Beginning
TTITLE1=Long ago and far away
TTITLE2=Close
TTITLE3=Don't blame me
TTITLE4=Clime
TTITLE5=Yesterdays
TTITLE6=Current
TTITLE7=Loverman
TTITLE8=Soulful
TTITLE9=The more I see you
TTITLE10=Ending V°
EXTD=
EXTT0=
EXTT1=
EXTT2=
EXTT3=
EXTT4=
EXTT5=
EXTT6=
EXTT7=
EXTT8=
EXTT9=
EXTT10=
PLAYORDER=
